<svg width="18" height="16" viewBox="0 0 18 16" fill="none" xmlns="http://www.w3.org/2000/svg">
<path d="M9.25725 0C9.57509 0 9.86565 0.179269 10.0078 0.463067L12.1719 4.78375L16.9303 5.47469C17.2464 5.52058 17.5089 5.74159 17.6076 6.04481C17.7063 6.34803 17.624 6.68088 17.3953 6.90345L13.9321 10.2743L14.7111 15.027C14.7626 15.3411 14.6314 15.6572 14.3724 15.8428C14.1133 16.0284 13.7713 16.0515 13.4897 15.9023L9.25725 13.6604L5.02479 15.9023C4.74315 16.0515 4.40115 16.0284 4.14214 15.8428C3.88313 15.6572 3.75185 15.3411 3.80334 15.027L4.5824 10.2743L1.11915 6.90345C0.890482 6.68088 0.808195 6.34803 0.906884 6.04481C1.00557 5.74159 1.26813 5.52058 1.58417 5.47469L6.34262 4.78375L8.50669 0.463067C8.64884 0.179269 8.9394 0 9.25725 0Z" fill="#0047FF"/>
</svg>
